<?xml version="1.0" encoding="UTF-8"?>
<svg id="_Слой_2" data-name="Слой 2" xmlns="http://www.w3.org/2000/svg" viewBox="0 0 39.56 39.56">
  <defs>
    <style>
      .cls-1 {
        fill: #222221;
        stroke-width: 0px;
      }

      .cls-2 {
        fill: none;
        stroke: #222221;
        stroke-miterlimit: 10;
        stroke-width: 1.5px;
      }
    </style>
  </defs>
  <g id="Capa_1" data-name="Capa 1">
    <g>
      <rect class="cls-2" x=".75" y=".75" width="38.06" height="38.06" rx="19.03" ry="19.03"/>
      <g>
        <path class="cls-1" d="M22.16,19.28h-7.69v2.2h5.19c-.61,2.68-2.51,4.33-5.05,4.33-3.33,0-6.03-2.7-6.03-6.03s2.7-6.03,6.03-6.03c1.58,0,3.02.61,4.1,1.61l1.7-1.47c-1.49-1.47-3.54-2.38-5.8-2.38-4.57,0-8.27,3.7-8.27,8.27s3.7,8.27,8.27,8.27,7.55-3.34,7.55-7.91v-.85Z"/>
        <polygon class="cls-1" points="33.21 19.38 30.04 19.38 30.04 16.2 28.01 16.2 28.01 19.38 24.84 19.38 24.84 21.4 28.01 21.4 28.01 24.57 30.04 24.57 30.04 21.4 33.21 21.4 33.21 19.38"/>
      </g>
    </g>
  </g>
</svg>