<?xml version="1.0" encoding="UTF-8"?>
<svg id="_Слой_2" data-name="Слой 2" xmlns="http://www.w3.org/2000/svg" viewBox="0 0 39.56 39.56">
  <defs>
    <style>
      .cls-1 {
        fill: #222221;
        stroke-width: 0px;
      }

      .cls-2 {
        fill: none;
        stroke: #222221;
        stroke-miterlimit: 10;
        stroke-width: 1.5px;
      }
    </style>
  </defs>
  <g id="Capa_1" data-name="Capa 1">
    <g>
      <path class="cls-2" d="M19.78,38.81h0C9.27,38.81.75,30.29.75,19.78h0C.75,9.27,9.27.75,19.78.75h0c10.51,0,19.03,8.52,19.03,19.03h0c0,10.51-8.52,19.03-19.03,19.03Z"/>
      <g>
        <path class="cls-1" d="M19.78,11.23c2.79,0,3.12.01,4.22.06,1.02.05,1.57.22,1.94.36.49.19.83.42,1.2.78.37.37.59.71.78,1.2.14.37.31.92.36,1.94.05,1.1.06,1.43.06,4.22s-.01,3.12-.06,4.22c-.05,1.02-.22,1.57-.36,1.94-.19.49-.42.83-.78,1.2-.36.36-.71.59-1.2.78-.37.14-.92.31-1.94.36-1.1.05-1.43.06-4.22.06s-3.12-.01-4.22-.06c-1.02-.05-1.57-.22-1.94-.36-.49-.19-.83-.42-1.2-.78-.37-.37-.59-.71-.78-1.2-.14-.37-.31-.92-.36-1.94-.05-1.1-.06-1.43-.06-4.22s.01-3.12.06-4.22c.05-1.02.22-1.57.36-1.94.19-.49.42-.83.78-1.2.37-.37.71-.59,1.2-.78.37-.14.92-.31,1.94-.36,1.1-.05,1.43-.06,4.22-.06M19.78,9.35c-2.83,0-3.19.01-4.3.06-1.11.05-1.87.23-2.53.49-.69.27-1.27.62-1.85,1.2-.58.58-.94,1.16-1.2,1.85-.26.66-.43,1.42-.48,2.53-.05,1.11-.06,1.47-.06,4.3s.01,3.19.06,4.3c.05,1.11.23,1.87.48,2.53.27.69.62,1.27,1.2,1.85.58.58,1.16.94,1.85,1.2.66.26,1.42.43,2.53.49,1.11.05,1.47.06,4.3.06s3.19-.01,4.3-.06c1.11-.05,1.87-.23,2.53-.49.69-.27,1.27-.62,1.85-1.2s.94-1.16,1.2-1.85c.26-.66.43-1.42.49-2.53.05-1.11.06-1.47.06-4.3s-.01-3.19-.06-4.3c-.05-1.11-.23-1.87-.49-2.53-.27-.69-.62-1.27-1.2-1.85s-1.16-.94-1.85-1.2c-.66-.26-1.42-.43-2.53-.49-1.11-.05-1.47-.06-4.3-.06"/>
        <path class="cls-1" d="M19.78,14.42c-2.96,0-5.36,2.4-5.36,5.36s2.4,5.36,5.36,5.36,5.36-2.4,5.36-5.36-2.4-5.36-5.36-5.36M19.78,23.26c-1.92,0-3.48-1.56-3.48-3.48s1.56-3.48,3.48-3.48,3.48,1.56,3.48,3.48-1.56,3.48-3.48,3.48"/>
        <path class="cls-1" d="M26.6,14.21c0,.69-.56,1.25-1.25,1.25s-1.25-.56-1.25-1.25.56-1.25,1.25-1.25,1.25.56,1.25,1.25"/>
      </g>
    </g>
  </g>
</svg>