<?xml version="1.0" encoding="UTF-8"?>
<svg id="_Слой_2" data-name="Слой 2" xmlns="http://www.w3.org/2000/svg" viewBox="0 0 39.56 39.56">
  <defs>
    <style>
      .cls-1 {
        fill: #222221;
        stroke-width: 0px;
      }

      .cls-2 {
        fill: none;
        stroke: #222221;
        stroke-miterlimit: 10;
        stroke-width: 1.5px;
      }
    </style>
  </defs>
  <g id="Capa_1" data-name="Capa 1">
    <g>
      <path class="cls-2" d="M19.78,38.81h0C9.27,38.81.75,30.29.75,19.78h0C.75,9.27,9.27.75,19.78.75h0c10.51,0,19.03,8.52,19.03,19.03h0c0,10.51-8.52,19.03-19.03,19.03Z"/>
      <path class="cls-1" d="M13.69,21.55c.3.12.56,0,.65-.32.06-.23.2-.8.26-1.04.09-.33.05-.44-.19-.72-.52-.62-.86-1.42-.86-2.55,0-3.28,2.45-6.22,6.39-6.22,3.49,0,5.4,2.13,5.4,4.98,0,3.74-1.66,6.9-4.12,6.9-1.36,0-2.37-1.12-2.05-2.5.39-1.64,1.15-3.42,1.15-4.61,0-1.06-.57-1.95-1.75-1.95-1.39,0-2.5,1.44-2.5,3.36,0,1.23.41,2.05.41,2.05,0,0-1.42,6.02-1.67,7.07-.5,2.1-.07,4.67-.04,4.93.02.15.22.19.31.07.13-.17,1.78-2.21,2.34-4.25.16-.58.91-3.57.91-3.57.45.86,1.77,1.62,3.17,1.62,4.17,0,7.01-3.8,7.01-8.9,0-3.85-3.26-7.44-8.22-7.44-6.17,0-9.28,4.42-9.28,8.11,0,2.23.85,4.22,2.66,4.96Z"/>
    </g>
  </g>
</svg>