<?xml version="1.0" encoding="UTF-8"?>
<svg id="_Слой_2" data-name="Слой 2" xmlns="http://www.w3.org/2000/svg" viewBox="0 0 39.56 39.56">
  <defs>
    <style>
      .cls-1 {
        fill: #222221;
        stroke-width: 0px;
      }

      .cls-2 {
        fill: none;
        stroke: #222221;
        stroke-miterlimit: 10;
        stroke-width: 1.5px;
      }
    </style>
  </defs>
  <g id="Capa_1" data-name="Capa 1">
    <g>
      <path class="cls-2" d="M19.78,38.81h0C9.27,38.81.75,30.29.75,19.78h0C.75,9.27,9.27.75,19.78.75h0c10.51,0,19.03,8.52,19.03,19.03h0c0,10.51-8.52,19.03-19.03,19.03Z"/>
      <path class="cls-1" d="M9.64,26.15c1.84,1.18,4.03,1.87,6.38,1.87,7.72,0,12.09-6.52,11.83-12.38.81-.59,1.52-1.32,2.08-2.15-.75.33-1.55.55-2.39.65.86-.51,1.52-1.33,1.83-2.3-.8.48-1.69.82-2.64,1.01-.76-.81-1.84-1.31-3.04-1.31-2.69,0-4.66,2.51-4.05,5.11-3.46-.17-6.52-1.83-8.58-4.35-1.09,1.87-.57,4.32,1.29,5.56-.68-.02-1.32-.21-1.89-.52-.04,1.93,1.34,3.73,3.34,4.13-.59.16-1.23.2-1.88.07.53,1.65,2.07,2.86,3.89,2.89-1.75,1.37-3.95,1.98-6.16,1.72Z"/>
    </g>
  </g>
</svg>