<?xml version="1.0" encoding="UTF-8"?>
<svg id="_Слой_2" data-name="Слой 2" xmlns="http://www.w3.org/2000/svg" viewBox="0 0 39.56 39.56">
  <defs>
    <style>
      .cls-1 {
        fill: #222221;
      }

      .cls-1, .cls-2 {
        stroke-width: 0px;
      }

      .cls-2 {
        fill: #fff;
      }

      .cls-3 {
        fill: none;
        stroke: #222221;
        stroke-miterlimit: 10;
        stroke-width: 1.5px;
      }
    </style>
  </defs>
  <g id="Capa_1" data-name="Capa 1">
    <g>
      <path class="cls-3" d="M19.78,38.81h0C9.27,38.81.75,30.29.75,19.78h0C.75,9.27,9.27.75,19.78.75h0c10.51,0,19.03,8.52,19.03,19.03h0c0,10.51-8.52,19.03-19.03,19.03Z"/>
      <g>
        <path class="cls-1" d="M34.37,12.4c-.35-1.32-1.38-2.36-2.69-2.71-2.38-.64-11.9-.64-11.9-.64,0,0-9.53,0-11.9.64-1.31.35-2.34,1.39-2.69,2.71-.64,2.39-.64,7.38-.64,7.38,0,0,0,4.99.64,7.38.35,1.32,1.38,2.36,2.69,2.71,2.38.64,11.9.64,11.9.64,0,0,9.53,0,11.9-.64,1.31-.35,2.34-1.39,2.69-2.71.64-2.39.64-7.38.64-7.38,0,0,0-4.99-.64-7.38Z"/>
        <polygon class="cls-2" points="16.67 24.31 16.67 15.25 24.63 19.78 16.67 24.31"/>
      </g>
    </g>
  </g>
</svg>